ISO-10303-21;
HEADER;
FILE_DESCRIPTION(('FreeCAD Model'),'2;1');
FILE_NAME('Open CASCADE Shape Model','2026-05-13T19:27:39',(''),(''),
  'Open CASCADE STEP processor 7.8','FreeCAD','Unknown');
FILE_SCHEMA(('AUTOMOTIVE_DESIGN { 1 0 10303 214 1 1 1 1 }'));
ENDSEC;
DATA;
#1 = APPLICATION_PROTOCOL_DEFINITION('international standard',
  'automotive_design',2000,#2);
#2 = APPLICATION_CONTEXT(
  'core data for automotive mechanical design processes');
#3 = SHAPE_DEFINITION_REPRESENTATION(#4,#10);
#4 = PRODUCT_DEFINITION_SHAPE('','',#5);
#5 = PRODUCT_DEFINITION('design','',#6,#9);
#6 = PRODUCT_DEFINITION_FORMATION('','',#7);
#7 = PRODUCT('Body','Body','',(#8));
#8 = PRODUCT_CONTEXT('',#2,'mechanical');
#9 = PRODUCT_DEFINITION_CONTEXT('part definition',#2,'design');
#10 = ADVANCED_BREP_SHAPE_REPRESENTATION('',(#11,#15),#737);
#11 = AXIS2_PLACEMENT_3D('',#12,#13,#14);
#12 = CARTESIAN_POINT('',(0.,0.,0.));
#13 = DIRECTION('',(0.,0.,1.));
#14 = DIRECTION('',(1.,0.,-0.));
#15 = MANIFOLD_SOLID_BREP('',#16);
#16 = CLOSED_SHELL('',(#17,#146,#315,#368,#436,#523,#601,#651,#702,#730)
  );
#17 = ADVANCED_FACE('',(#18),#33,.T.);
#18 = FACE_BOUND('',#19,.F.);
#19 = EDGE_LOOP('',(#20,#56,#84,#113));
#20 = ORIENTED_EDGE('',*,*,#21,.F.);
#21 = EDGE_CURVE('',#22,#24,#26,.T.);
#22 = VERTEX_POINT('',#23);
#23 = CARTESIAN_POINT('',(2.,4.481863538127,-25.61079653633));
#24 = VERTEX_POINT('',#25);
#25 = CARTESIAN_POINT('',(2.,-4.481863538127,-25.61079653633));
#26 = SURFACE_CURVE('',#27,(#32,#44),.PCURVE_S1.);
#27 = CIRCLE('',#28,26.);
#28 = AXIS2_PLACEMENT_3D('',#29,#30,#31);
#29 = CARTESIAN_POINT('',(2.,0.,0.));
#30 = DIRECTION('',(1.,-0.,0.));
#31 = DIRECTION('',(0.,9.615384615385E-02,-0.995366484201));
#32 = PCURVE('',#33,#38);
#33 = CYLINDRICAL_SURFACE('',#34,26.);
#34 = AXIS2_PLACEMENT_3D('',#35,#36,#37);
#35 = CARTESIAN_POINT('',(0.,0.,0.));
#36 = DIRECTION('',(-1.,-0.,-0.));
#37 = DIRECTION('',(0.,1.,0.));
#38 = DEFINITIONAL_REPRESENTATION('',(#39),#43);
#39 = LINE('',#40,#41);
#40 = CARTESIAN_POINT('',(-4.808691612458,-2.));
#41 = VECTOR('',#42,1.);
#42 = DIRECTION('',(-1.,0.));
#43 = ( GEOMETRIC_REPRESENTATION_CONTEXT(2) 
PARAMETRIC_REPRESENTATION_CONTEXT() REPRESENTATION_CONTEXT('2D SPACE',''
  ) );
#44 = PCURVE('',#45,#50);
#45 = CONICAL_SURFACE('',#46,26.,0.785398163397);
#46 = AXIS2_PLACEMENT_3D('',#47,#48,#49);
#47 = CARTESIAN_POINT('',(2.,0.,0.));
#48 = DIRECTION('',(1.,0.,0.));
#49 = DIRECTION('',(0.,9.615384615385E-02,-0.995366484201));
#50 = DEFINITIONAL_REPRESENTATION('',(#51),#55);
#51 = LINE('',#52,#53);
#52 = CARTESIAN_POINT('',(0.,-0.));
#53 = VECTOR('',#54,1.);
#54 = DIRECTION('',(1.,-0.));
#55 = ( GEOMETRIC_REPRESENTATION_CONTEXT(2) 
PARAMETRIC_REPRESENTATION_CONTEXT() REPRESENTATION_CONTEXT('2D SPACE',''
  ) );
#56 = ORIENTED_EDGE('',*,*,#57,.T.);
#57 = EDGE_CURVE('',#22,#58,#60,.T.);
#58 = VERTEX_POINT('',#59);
#59 = CARTESIAN_POINT('',(8.,4.481863538127,-25.61079653633));
#60 = SURFACE_CURVE('',#61,(#65,#72),.PCURVE_S1.);
#61 = LINE('',#62,#63);
#62 = CARTESIAN_POINT('',(2.,4.481863538127,-25.61079653633));
#63 = VECTOR('',#64,1.);
#64 = DIRECTION('',(1.,0.,0.));
#65 = PCURVE('',#33,#66);
#66 = DEFINITIONAL_REPRESENTATION('',(#67),#71);
#67 = LINE('',#68,#69);
#68 = CARTESIAN_POINT('',(-4.885633667272,-2.));
#69 = VECTOR('',#70,1.);
#70 = DIRECTION('',(-0.,-1.));
#71 = ( GEOMETRIC_REPRESENTATION_CONTEXT(2) 
PARAMETRIC_REPRESENTATION_CONTEXT() REPRESENTATION_CONTEXT('2D SPACE',''
  ) );
#72 = PCURVE('',#73,#78);
#73 = PLANE('',#74);
#74 = AXIS2_PLACEMENT_3D('',#75,#76,#77);
#75 = CARTESIAN_POINT('',(2.,2.5,-23.87952858921));
#76 = DIRECTION('',(0.,-0.657888278342,-0.753115537763));
#77 = DIRECTION('',(1.,0.,0.));
#78 = DEFINITIONAL_REPRESENTATION('',(#79),#83);
#79 = LINE('',#80,#81);
#80 = CARTESIAN_POINT('',(0.,-2.631553113369));
#81 = VECTOR('',#82,1.);
#82 = DIRECTION('',(1.,0.));
#83 = ( GEOMETRIC_REPRESENTATION_CONTEXT(2) 
PARAMETRIC_REPRESENTATION_CONTEXT() REPRESENTATION_CONTEXT('2D SPACE',''
  ) );
#84 = ORIENTED_EDGE('',*,*,#85,.T.);
#85 = EDGE_CURVE('',#58,#86,#88,.T.);
#86 = VERTEX_POINT('',#87);
#87 = CARTESIAN_POINT('',(8.,-4.481863538127,-25.61079653633));
#88 = SURFACE_CURVE('',#89,(#94,#101),.PCURVE_S1.);
#89 = CIRCLE('',#90,26.);
#90 = AXIS2_PLACEMENT_3D('',#91,#92,#93);
#91 = CARTESIAN_POINT('',(8.,0.,0.));
#92 = DIRECTION('',(1.,-0.,0.));
#93 = DIRECTION('',(0.,9.615384615385E-02,-0.995366484201));
#94 = PCURVE('',#33,#95);
#95 = DEFINITIONAL_REPRESENTATION('',(#96),#100);
#96 = LINE('',#97,#98);
#97 = CARTESIAN_POINT('',(-4.808691612458,-8.));
#98 = VECTOR('',#99,1.);
#99 = DIRECTION('',(-1.,0.));
#100 = ( GEOMETRIC_REPRESENTATION_CONTEXT(2) 
PARAMETRIC_REPRESENTATION_CONTEXT() REPRESENTATION_CONTEXT('2D SPACE',''
  ) );
#101 = PCURVE('',#102,#107);
#102 = CONICAL_SURFACE('',#103,26.,0.785398163397);
#103 = AXIS2_PLACEMENT_3D('',#104,#105,#106);
#104 = CARTESIAN_POINT('',(8.,0.,0.));
#105 = DIRECTION('',(-1.,-0.,-0.));
#106 = DIRECTION('',(0.,9.615384615385E-02,-0.995366484201));
#107 = DEFINITIONAL_REPRESENTATION('',(#108),#112);
#108 = LINE('',#109,#110);
#109 = CARTESIAN_POINT('',(-0.,-0.));
#110 = VECTOR('',#111,1.);
#111 = DIRECTION('',(-1.,-0.));
#112 = ( GEOMETRIC_REPRESENTATION_CONTEXT(2) 
PARAMETRIC_REPRESENTATION_CONTEXT() REPRESENTATION_CONTEXT('2D SPACE',''
  ) );
#113 = ORIENTED_EDGE('',*,*,#114,.F.);
#114 = EDGE_CURVE('',#24,#86,#115,.T.);
#115 = SURFACE_CURVE('',#116,(#122,#128),.PCURVE_S1.);
#116 = B_SPLINE_CURVE_WITH_KNOTS('',2,(#117,#118,#119,#120,#121),
  .UNSPECIFIED.,.F.,.F.,(3,1,1,3),(-2.357162814624,-1.989962814624,
    7.989962814624,8.357162814624),.UNSPECIFIED.);
#117 = CARTESIAN_POINT('',(-0.357162814624,-4.481863538127,
    -25.61079653633));
#118 = CARTESIAN_POINT('',(-0.173562814624,-4.481863538127,
    -25.61079653633));
#119 = CARTESIAN_POINT('',(5.,-4.481863538127,-25.61079653633));
#120 = CARTESIAN_POINT('',(10.173562814624,-4.481863538127,
    -25.61079653633));
#121 = CARTESIAN_POINT('',(10.357162814624,-4.481863538127,
    -25.61079653633));
#122 = PCURVE('',#33,#123);
#123 = DEFINITIONAL_REPRESENTATION('',(#124),#127);
#124 = B_SPLINE_CURVE_WITH_KNOTS('',1,(#125,#126),.UNSPECIFIED.,.F.,.F.,
  (2,2),(-1.989962814624,7.989962814624),.PIECEWISE_BEZIER_KNOTS.);
#125 = CARTESIAN_POINT('',(-10.82232960067,-1.003718537604E-02));
#126 = CARTESIAN_POINT('',(-10.82232960067,-9.989962814624));
#127 = ( GEOMETRIC_REPRESENTATION_CONTEXT(2) 
PARAMETRIC_REPRESENTATION_CONTEXT() REPRESENTATION_CONTEXT('2D SPACE',''
  ) );
#128 = PCURVE('',#129,#140);
#129 = B_SPLINE_SURFACE_WITH_KNOTS('',1,2,(
    (#130,#131,#132,#133,#134)
    ,(#135,#136,#137,#138,#139
    )),.UNSPECIFIED.,.F.,.F.,.F.,(2,2),(3,1,1,3),(0.,9.979925629248),(
    -2.357162814624,-1.989962814624,7.989962814624,8.357162814624),
  .UNSPECIFIED.);
#130 = CARTESIAN_POINT('',(-0.357162814624,-4.481863538127,
    -25.61079653633));
#131 = CARTESIAN_POINT('',(-0.173562814624,-4.481863538127,
    -25.61079653633));
#132 = CARTESIAN_POINT('',(5.,-4.481863538127,-25.61079653633));
#133 = CARTESIAN_POINT('',(10.173562814624,-4.481863538127,
    -25.61079653633));
#134 = CARTESIAN_POINT('',(10.357162814624,-4.481863538127,
    -25.61079653633));
#135 = CARTESIAN_POINT('',(-0.357162814624,-2.5,-23.87952858921));
#136 = CARTESIAN_POINT('',(-0.173562814624,-2.5,-23.87952858921));
#137 = CARTESIAN_POINT('',(5.,-2.5,-23.87952858921));
#138 = CARTESIAN_POINT('',(10.173562814624,-2.5,-23.87952858921));
#139 = CARTESIAN_POINT('',(10.357162814624,-2.5,-23.87952858921));
#140 = DEFINITIONAL_REPRESENTATION('',(#141),#145);
#141 = LINE('',#142,#143);
#142 = CARTESIAN_POINT('',(0.,0.));
#143 = VECTOR('',#144,1.);
#144 = DIRECTION('',(0.,1.));
#145 = ( GEOMETRIC_REPRESENTATION_CONTEXT(2) 
PARAMETRIC_REPRESENTATION_CONTEXT() REPRESENTATION_CONTEXT('2D SPACE',''
  ) );
#146 = ADVANCED_FACE('',(#147),#45,.T.);
#147 = FACE_BOUND('',#148,.F.);
#148 = EDGE_LOOP('',(#149,#183,#208,#209,#256,#288));
#149 = ORIENTED_EDGE('',*,*,#150,.F.);
#150 = EDGE_CURVE('',#151,#153,#155,.T.);
#151 = VERTEX_POINT('',#152);
#152 = CARTESIAN_POINT('',(1.003718537603E-02,2.5,-23.87952858921));
#153 = VERTEX_POINT('',#154);
#154 = CARTESIAN_POINT('',(0.,2.5,-23.86943652456));
#155 = SURFACE_CURVE('',#156,(#161,#171),.PCURVE_S1.);
#156 = HYPERBOLA('',#157,2.5,2.5);
#157 = AXIS2_PLACEMENT_3D('',#158,#159,#160);
#158 = CARTESIAN_POINT('',(-24.,2.5,0.));
#159 = DIRECTION('',(0.,-1.,0.));
#160 = DIRECTION('',(1.,0.,0.));
#161 = PCURVE('',#45,#162);
#162 = DEFINITIONAL_REPRESENTATION('',(#163),#170);
#163 = B_SPLINE_CURVE_WITH_KNOTS('',5,(#164,#165,#166,#167,#168,#169),
  .UNSPECIFIED.,.F.,.F.,(6,6),(-3.032633540972,-2.95218650051),
  .PIECEWISE_BEZIER_KNOTS.);
#164 = CARTESIAN_POINT('',(0.,7.106423150925E-15));
#165 = CARTESIAN_POINT('',(1.547058470426E-03,-0.416386296712));
#166 = CARTESIAN_POINT('',(3.125086841824E-03,-0.824359349415));
#167 = CARTESIAN_POINT('',(4.734904033378E-03,-1.224143718262));
#168 = CARTESIAN_POINT('',(6.377360505889E-03,-1.61595489482));
#169 = CARTESIAN_POINT('',(8.053340515517E-03,-2.));
#170 = ( GEOMETRIC_REPRESENTATION_CONTEXT(2) 
PARAMETRIC_REPRESENTATION_CONTEXT() REPRESENTATION_CONTEXT('2D SPACE',''
  ) );
#171 = PCURVE('',#172,#177);
#172 = PLANE('',#173);
#173 = AXIS2_PLACEMENT_3D('',#174,#175,#176);
#174 = CARTESIAN_POINT('',(0.,2.5,-25.87952858921));
#175 = DIRECTION('',(0.,-1.,0.));
#176 = DIRECTION('',(0.,0.,1.));
#177 = DEFINITIONAL_REPRESENTATION('',(#178),#182);
#178 = HYPERBOLA('',#179,2.5,2.5);
#179 = AXIS2_PLACEMENT_2D('',#180,#181);
#180 = CARTESIAN_POINT('',(25.879528589215,24.));
#181 = DIRECTION('',(0.,-1.));
#182 = ( GEOMETRIC_REPRESENTATION_CONTEXT(2) 
PARAMETRIC_REPRESENTATION_CONTEXT() REPRESENTATION_CONTEXT('2D SPACE',''
  ) );
#183 = ORIENTED_EDGE('',*,*,#184,.F.);
#184 = EDGE_CURVE('',#22,#151,#185,.T.);
#185 = SURFACE_CURVE('',#186,(#191,#201),.PCURVE_S1.);
#186 = HYPERBOLA('',#187,16.339323319132,16.339323319132);
#187 = AXIS2_PLACEMENT_3D('',#188,#189,#190);
#188 = CARTESIAN_POINT('',(-24.,-10.7494492877,-12.30539826816));
#189 = DIRECTION('',(0.,-0.657888278342,-0.753115537763));
#190 = DIRECTION('',(1.,0.,0.));
#191 = PCURVE('',#45,#192);
#192 = DEFINITIONAL_REPRESENTATION('',(#193),#200);
#193 = B_SPLINE_CURVE_WITH_KNOTS('',5,(#194,#195,#196,#197,#198,#199),
  .UNSPECIFIED.,.F.,.F.,(6,6),(-1.039933205728,-0.93459491144),
  .PIECEWISE_BEZIER_KNOTS.);
#194 = CARTESIAN_POINT('',(7.694205481466E-02,0.));
#195 = CARTESIAN_POINT('',(6.37023898281E-02,-0.426080842151));
#196 = CARTESIAN_POINT('',(5.019151480227E-02,-0.837736682227));
#197 = CARTESIAN_POINT('',(3.640685753024E-02,-1.23536150167));
#198 = CARTESIAN_POINT('',(2.234653091191E-02,-1.619322635731));
#199 = CARTESIAN_POINT('',(8.009556462742E-03,-1.989962814624));
#200 = ( GEOMETRIC_REPRESENTATION_CONTEXT(2) 
PARAMETRIC_REPRESENTATION_CONTEXT() REPRESENTATION_CONTEXT('2D SPACE',''
  ) );
#201 = PCURVE('',#73,#202);
#202 = DEFINITIONAL_REPRESENTATION('',(#203),#207);
#203 = HYPERBOLA('',#204,16.339323319132,16.339323319132);
#204 = AXIS2_PLACEMENT_2D('',#205,#206);
#205 = CARTESIAN_POINT('',(-26.,17.592850795593));
#206 = DIRECTION('',(1.,0.));
#207 = ( GEOMETRIC_REPRESENTATION_CONTEXT(2) 
PARAMETRIC_REPRESENTATION_CONTEXT() REPRESENTATION_CONTEXT('2D SPACE',''
  ) );
#208 = ORIENTED_EDGE('',*,*,#21,.T.);
#209 = ORIENTED_EDGE('',*,*,#210,.T.);
#210 = EDGE_CURVE('',#24,#211,#213,.T.);
#211 = VERTEX_POINT('',#212);
#212 = CARTESIAN_POINT('',(1.003718537604E-02,-2.5,-23.87952858921));
#213 = SURFACE_CURVE('',#214,(#226,#241),.PCURVE_S1.);
#214 = B_SPLINE_CURVE_WITH_KNOTS('',4,(#215,#216,#217,#218,#219,#220,
    #221,#222,#223,#224,#225),.UNSPECIFIED.,.F.,.F.,(5,3,3,5),(0.,
    6.0212552929E-02,0.500964002323,1.),.UNSPECIFIED.);
#215 = CARTESIAN_POINT('',(2.,-4.481863538127,-25.61079653633));
#216 = CARTESIAN_POINT('',(1.969301138402,-4.452141300878,
    -25.58483251021));
#217 = CARTESIAN_POINT('',(1.938629503508,-4.422414918408,
    -25.55886486302));
#218 = CARTESIAN_POINT('',(1.907985395184,-4.39268435491,-25.53289356346
    ));
#219 = CARTESIAN_POINT('',(1.653258945642,-4.145293313772,-25.3167837397
    ));
#220 = CARTESIAN_POINT('',(1.43063292589,-3.927411883442,-25.12645220105
    ));
#221 = CARTESIAN_POINT('',(1.209577043713,-3.709294791697,
    -24.93591479906));
#222 = CARTESIAN_POINT('',(0.741792216822,-3.243690112154,
    -24.52918323444));
#223 = CARTESIAN_POINT('',(0.495534029758,-2.996132859148,
    -24.31292821539));
#224 = CARTESIAN_POINT('',(0.251559561222,-2.748242189529,
    -24.09638193839));
#225 = CARTESIAN_POINT('',(1.003718537602E-02,-2.5,-23.87952858921));
#226 = PCURVE('',#45,#227);
#227 = DEFINITIONAL_REPRESENTATION('',(#228),#240);
#228 = B_SPLINE_CURVE_WITH_KNOTS('',4,(#229,#230,#231,#232,#233,#234,
    #235,#236,#237,#238,#239),.UNSPECIFIED.,.F.,.F.,(5,3,3,5),(0.,
    6.0212552929E-02,0.500964002323,1.),.UNSPECIFIED.);
#229 = CARTESIAN_POINT('',(6.013637988219,-4.221427483684E-15));
#230 = CARTESIAN_POINT('',(6.014591897907,-3.069886159823E-02));
#231 = CARTESIAN_POINT('',(6.015548944113,-6.137047820152E-02));
#232 = CARTESIAN_POINT('',(6.016509146521,-9.201459672473E-02));
#233 = CARTESIAN_POINT('',(6.024524380238,-0.346741046267));
#234 = CARTESIAN_POINT('',(6.031746389982,-0.569367066182));
#235 = CARTESIAN_POINT('',(6.039146246355,-0.790422948626));
#236 = CARTESIAN_POINT('',(6.055321483847,-1.258207775518));
#237 = CARTESIAN_POINT('',(6.064149357576,-1.504465954097));
#238 = CARTESIAN_POINT('',(6.073228002057,-1.748440438778));
#239 = CARTESIAN_POINT('',(6.082570486571,-1.989962814624));
#240 = ( GEOMETRIC_REPRESENTATION_CONTEXT(2) 
PARAMETRIC_REPRESENTATION_CONTEXT() REPRESENTATION_CONTEXT('2D SPACE',''
  ) );
#241 = PCURVE('',#129,#242);
#242 = DEFINITIONAL_REPRESENTATION('',(#243),#255);
#243 = B_SPLINE_CURVE_WITH_KNOTS('',4,(#244,#245,#246,#247,#248,#249,
    #250,#251,#252,#253,#254),.UNSPECIFIED.,.F.,.F.,(5,3,3,5),(0.,
    6.0212552929E-02,0.500964002323,1.),.UNSPECIFIED.);
#244 = CARTESIAN_POINT('',(0.,7.55E-15));
#245 = CARTESIAN_POINT('',(0.149670101684,-3.069886159822E-02));
#246 = CARTESIAN_POINT('',(0.299361077159,-6.137049649195E-02));
#247 = CARTESIAN_POINT('',(0.449073106729,-9.201460481596E-02));
#248 = CARTESIAN_POINT('',(1.694842123817,-0.346741054358));
#249 = CARTESIAN_POINT('',(2.79201174668,-0.56936707411));
#250 = CARTESIAN_POINT('',(3.890368072533,-0.790422956287));
#251 = CARTESIAN_POINT('',(6.234979588453,-1.258207783178));
#252 = CARTESIAN_POINT('',(7.481585586522,-1.504465970242));
#253 = CARTESIAN_POINT('',(8.729870546303,-1.748440438778));
#254 = CARTESIAN_POINT('',(9.979925629248,-1.989962814624));
#255 = ( GEOMETRIC_REPRESENTATION_CONTEXT(2) 
PARAMETRIC_REPRESENTATION_CONTEXT() REPRESENTATION_CONTEXT('2D SPACE',''
  ) );
#256 = ORIENTED_EDGE('',*,*,#257,.T.);
#257 = EDGE_CURVE('',#211,#258,#260,.T.);
#258 = VERTEX_POINT('',#259);
#259 = CARTESIAN_POINT('',(0.,-2.5,-23.86943652456));
#260 = SURFACE_CURVE('',#261,(#266,#276),.PCURVE_S1.);
#261 = HYPERBOLA('',#262,2.5,2.5);
#262 = AXIS2_PLACEMENT_3D('',#263,#264,#265);
#263 = CARTESIAN_POINT('',(-24.,-2.5,0.));
#264 = DIRECTION('',(0.,-1.,0.));
#265 = DIRECTION('',(1.,0.,0.));
#266 = PCURVE('',#45,#267);
#267 = DEFINITIONAL_REPRESENTATION('',(#268),#275);
#268 = B_SPLINE_CURVE_WITH_KNOTS('',5,(#269,#270,#271,#272,#273,#274),
  .UNSPECIFIED.,.F.,.F.,(6,6),(-3.032633540972,-2.95218650051),
  .PIECEWISE_BEZIER_KNOTS.);
#269 = CARTESIAN_POINT('',(6.090580043034,-1.774838020778E-15));
#270 = CARTESIAN_POINT('',(6.089032984563,-0.416386296712));
#271 = CARTESIAN_POINT('',(6.087454956192,-0.824359349415));
#272 = CARTESIAN_POINT('',(6.085845139,-1.224143718262));
#273 = CARTESIAN_POINT('',(6.084202682528,-1.61595489482));
#274 = CARTESIAN_POINT('',(6.082526702518,-2.));
#275 = ( GEOMETRIC_REPRESENTATION_CONTEXT(2) 
PARAMETRIC_REPRESENTATION_CONTEXT() REPRESENTATION_CONTEXT('2D SPACE',''
  ) );
#276 = PCURVE('',#277,#282);
#277 = PLANE('',#278);
#278 = AXIS2_PLACEMENT_3D('',#279,#280,#281);
#279 = CARTESIAN_POINT('',(0.,-2.5,-9.88888264669));
#280 = DIRECTION('',(0.,1.,0.));
#281 = DIRECTION('',(0.,0.,-1.));
#282 = DEFINITIONAL_REPRESENTATION('',(#283),#287);
#283 = HYPERBOLA('',#284,2.5,2.5);
#284 = AXIS2_PLACEMENT_2D('',#285,#286);
#285 = CARTESIAN_POINT('',(-9.88888264669,24.));
#286 = DIRECTION('',(0.,-1.));
#287 = ( GEOMETRIC_REPRESENTATION_CONTEXT(2) 
PARAMETRIC_REPRESENTATION_CONTEXT() REPRESENTATION_CONTEXT('2D SPACE',''
  ) );
#288 = ORIENTED_EDGE('',*,*,#289,.F.);
#289 = EDGE_CURVE('',#153,#258,#290,.T.);
#290 = SURFACE_CURVE('',#291,(#296,#303),.PCURVE_S1.);
#291 = CIRCLE('',#292,24.);
#292 = AXIS2_PLACEMENT_3D('',#293,#294,#295);
#293 = CARTESIAN_POINT('',(0.,0.,0.));
#294 = DIRECTION('',(1.,-0.,0.));
#295 = DIRECTION('',(0.,9.615384615385E-02,-0.995366484201));
#296 = PCURVE('',#45,#297);
#297 = DEFINITIONAL_REPRESENTATION('',(#298),#302);
#298 = LINE('',#299,#300);
#299 = CARTESIAN_POINT('',(0.,-2.));
#300 = VECTOR('',#301,1.);
#301 = DIRECTION('',(1.,-0.));
#302 = ( GEOMETRIC_REPRESENTATION_CONTEXT(2) 
PARAMETRIC_REPRESENTATION_CONTEXT() REPRESENTATION_CONTEXT('2D SPACE',''
  ) );
#303 = PCURVE('',#304,#309);
#304 = PLANE('',#305);
#305 = AXIS2_PLACEMENT_3D('',#306,#307,#308);
#306 = CARTESIAN_POINT('',(0.,1.26E-15,-2.208160871998));
#307 = DIRECTION('',(1.,0.,0.));
#308 = DIRECTION('',(0.,0.,1.));
#309 = DEFINITIONAL_REPRESENTATION('',(#310),#314);
#310 = CIRCLE('',#311,24.);
#311 = AXIS2_PLACEMENT_2D('',#312,#313);
#312 = CARTESIAN_POINT('',(2.208160871998,1.26E-15));
#313 = DIRECTION('',(-0.995366484201,-9.615384615385E-02));
#314 = ( GEOMETRIC_REPRESENTATION_CONTEXT(2) 
PARAMETRIC_REPRESENTATION_CONTEXT() REPRESENTATION_CONTEXT('2D SPACE',''
  ) );
#315 = ADVANCED_FACE('',(#316),#73,.T.);
#316 = FACE_BOUND('',#317,.T.);
#317 = EDGE_LOOP('',(#318,#319,#320,#347));
#318 = ORIENTED_EDGE('',*,*,#184,.F.);
#319 = ORIENTED_EDGE('',*,*,#57,.T.);
#320 = ORIENTED_EDGE('',*,*,#321,.T.);
#321 = EDGE_CURVE('',#58,#322,#324,.T.);
#322 = VERTEX_POINT('',#323);
#323 = CARTESIAN_POINT('',(9.989962814624,2.5,-23.87952858921));
#324 = SURFACE_CURVE('',#325,(#330,#337),.PCURVE_S1.);
#325 = HYPERBOLA('',#326,16.339323319132,16.339323319132);
#326 = AXIS2_PLACEMENT_3D('',#327,#328,#329);
#327 = CARTESIAN_POINT('',(34.,-10.7494492877,-12.30539826816));
#328 = DIRECTION('',(0.,0.657888278342,0.753115537763));
#329 = DIRECTION('',(-1.,0.,0.));
#330 = PCURVE('',#73,#331);
#331 = DEFINITIONAL_REPRESENTATION('',(#332),#336);
#332 = HYPERBOLA('',#333,16.339323319132,16.339323319132);
#333 = AXIS2_PLACEMENT_2D('',#334,#335);
#334 = CARTESIAN_POINT('',(32.,17.592850795593));
#335 = DIRECTION('',(-1.,0.));
#336 = ( GEOMETRIC_REPRESENTATION_CONTEXT(2) 
PARAMETRIC_REPRESENTATION_CONTEXT() REPRESENTATION_CONTEXT('2D SPACE',''
  ) );
#337 = PCURVE('',#102,#338);
#338 = DEFINITIONAL_REPRESENTATION('',(#339),#346);
#339 = B_SPLINE_CURVE_WITH_KNOTS('',5,(#340,#341,#342,#343,#344,#345),
  .UNSPECIFIED.,.F.,.F.,(6,6),(-1.039933205728,-0.93459491144),
  .PIECEWISE_BEZIER_KNOTS.);
#340 = CARTESIAN_POINT('',(-7.694205481466E-02,0.));
#341 = CARTESIAN_POINT('',(-6.37023898281E-02,-0.426080842151));
#342 = CARTESIAN_POINT('',(-5.019151480227E-02,-0.837736682227));
#343 = CARTESIAN_POINT('',(-3.640685753024E-02,-1.23536150167));
#344 = CARTESIAN_POINT('',(-2.234653091191E-02,-1.619322635731));
#345 = CARTESIAN_POINT('',(-8.009556462742E-03,-1.989962814624));
#346 = ( GEOMETRIC_REPRESENTATION_CONTEXT(2) 
PARAMETRIC_REPRESENTATION_CONTEXT() REPRESENTATION_CONTEXT('2D SPACE',''
  ) );
#347 = ORIENTED_EDGE('',*,*,#348,.F.);
#348 = EDGE_CURVE('',#151,#322,#349,.T.);
#349 = SURFACE_CURVE('',#350,(#354,#361),.PCURVE_S1.);
#350 = LINE('',#351,#352);
#351 = CARTESIAN_POINT('',(2.,2.5,-23.87952858921));
#352 = VECTOR('',#353,1.);
#353 = DIRECTION('',(1.,0.,0.));
#354 = PCURVE('',#73,#355);
#355 = DEFINITIONAL_REPRESENTATION('',(#356),#360);
#356 = LINE('',#357,#358);
#357 = CARTESIAN_POINT('',(0.,0.));
#358 = VECTOR('',#359,1.);
#359 = DIRECTION('',(1.,0.));
#360 = ( GEOMETRIC_REPRESENTATION_CONTEXT(2) 
PARAMETRIC_REPRESENTATION_CONTEXT() REPRESENTATION_CONTEXT('2D SPACE',''
  ) );
#361 = PCURVE('',#172,#362);
#362 = DEFINITIONAL_REPRESENTATION('',(#363),#367);
#363 = LINE('',#364,#365);
#364 = CARTESIAN_POINT('',(2.,-2.));
#365 = VECTOR('',#366,1.);
#366 = DIRECTION('',(0.,-1.));
#367 = ( GEOMETRIC_REPRESENTATION_CONTEXT(2) 
PARAMETRIC_REPRESENTATION_CONTEXT() REPRESENTATION_CONTEXT('2D SPACE',''
  ) );
#368 = ADVANCED_FACE('',(#369),#129,.T.);
#369 = FACE_BOUND('',#370,.T.);
#370 = EDGE_LOOP('',(#371,#372,#399,#435));
#371 = ORIENTED_EDGE('',*,*,#210,.T.);
#372 = ORIENTED_EDGE('',*,*,#373,.T.);
#373 = EDGE_CURVE('',#211,#374,#376,.T.);
#374 = VERTEX_POINT('',#375);
#375 = CARTESIAN_POINT('',(9.989962814624,-2.5,-23.87952858921));
#376 = SURFACE_CURVE('',#377,(#383,#390),.PCURVE_S1.);
#377 = B_SPLINE_CURVE_WITH_KNOTS('',2,(#378,#379,#380,#381,#382),
  .UNSPECIFIED.,.F.,.F.,(3,1,1,3),(-2.357162814624,-1.989962814624,
    7.989962814624,8.357162814624),.UNSPECIFIED.);
#378 = CARTESIAN_POINT('',(-0.357162814624,-2.5,-23.87952858921));
#379 = CARTESIAN_POINT('',(-0.173562814624,-2.5,-23.87952858921));
#380 = CARTESIAN_POINT('',(5.,-2.5,-23.87952858921));
#381 = CARTESIAN_POINT('',(10.173562814624,-2.5,-23.87952858921));
#382 = CARTESIAN_POINT('',(10.357162814624,-2.5,-23.87952858921));
#383 = PCURVE('',#129,#384);
#384 = DEFINITIONAL_REPRESENTATION('',(#385),#389);
#385 = LINE('',#386,#387);
#386 = CARTESIAN_POINT('',(9.979925629248,0.));
#387 = VECTOR('',#388,1.);
#388 = DIRECTION('',(0.,1.));
#389 = ( GEOMETRIC_REPRESENTATION_CONTEXT(2) 
PARAMETRIC_REPRESENTATION_CONTEXT() REPRESENTATION_CONTEXT('2D SPACE',''
  ) );
#390 = PCURVE('',#277,#391);
#391 = DEFINITIONAL_REPRESENTATION('',(#392),#398);
#392 = B_SPLINE_CURVE_WITH_KNOTS('',2,(#393,#394,#395,#396,#397),
  .UNSPECIFIED.,.F.,.F.,(3,1,1,3),(-2.357162814624,-1.989962814624,
    7.989962814624,8.357162814624),.UNSPECIFIED.);
#393 = CARTESIAN_POINT('',(13.990645942525,0.357162814624));
#394 = CARTESIAN_POINT('',(13.990645942525,0.173562814624));
#395 = CARTESIAN_POINT('',(13.990645942525,-5.));
#396 = CARTESIAN_POINT('',(13.990645942525,-10.17356281462));
#397 = CARTESIAN_POINT('',(13.990645942525,-10.35716281462));
#398 = ( GEOMETRIC_REPRESENTATION_CONTEXT(2) 
PARAMETRIC_REPRESENTATION_CONTEXT() REPRESENTATION_CONTEXT('2D SPACE',''
  ) );
#399 = ORIENTED_EDGE('',*,*,#400,.F.);
#400 = EDGE_CURVE('',#86,#374,#401,.T.);
#401 = SURFACE_CURVE('',#402,(#411,#423),.PCURVE_S1.);
#402 = B_SPLINE_CURVE_WITH_KNOTS('',4,(#403,#404,#405,#406,#407,#408,
    #409,#410),.UNSPECIFIED.,.F.,.F.,(5,3,5),(0.,0.498963869389,1.),
  .UNSPECIFIED.);
#403 = CARTESIAN_POINT('',(8.,-4.481863538127,-25.61079653633));
#404 = CARTESIAN_POINT('',(8.254392515332,-4.23556402403,-25.39564022211
    ));
#405 = CARTESIAN_POINT('',(8.506913070778,-3.988979612871,
    -25.18023503448));
#406 = CARTESIAN_POINT('',(8.757439121758,-3.742095244063,
    -24.96456781716));
#407 = CARTESIAN_POINT('',(9.25524665431,-3.246666718971,-24.53178346593
    ));
#408 = CARTESIAN_POINT('',(9.502510205169,-2.998119939572,
    -24.31466404057));
#409 = CARTESIAN_POINT('',(9.747472418451,-2.749237142831,
    -24.09725108539));
#410 = CARTESIAN_POINT('',(9.989962814624,-2.5,-23.87952858921));
#411 = PCURVE('',#129,#412);
#412 = DEFINITIONAL_REPRESENTATION('',(#413),#422);
#413 = B_SPLINE_CURVE_WITH_KNOTS('',4,(#414,#415,#416,#417,#418,#419,
    #420,#421),.UNSPECIFIED.,.F.,.F.,(5,3,5),(0.,0.498963869389,1.),
  .UNSPECIFIED.);
#414 = CARTESIAN_POINT('',(0.,6.));
#415 = CARTESIAN_POINT('',(1.240272494001,6.254392515332));
#416 = CARTESIAN_POINT('',(2.481979623355,6.506913070778));
#417 = CARTESIAN_POINT('',(3.72519722756,6.757439121758));
#418 = CARTESIAN_POINT('',(6.219990506667,7.25524665431));
#419 = CARTESIAN_POINT('',(7.471579390598,7.502510205169));
#420 = CARTESIAN_POINT('',(8.724860332545,7.747472418451));
#421 = CARTESIAN_POINT('',(9.979925629248,7.989962814624));
#422 = ( GEOMETRIC_REPRESENTATION_CONTEXT(2) 
PARAMETRIC_REPRESENTATION_CONTEXT() REPRESENTATION_CONTEXT('2D SPACE',''
  ) );
#423 = PCURVE('',#102,#424);
#424 = DEFINITIONAL_REPRESENTATION('',(#425),#434);
#425 = B_SPLINE_CURVE_WITH_KNOTS('',4,(#426,#427,#428,#429,#430,#431,
    #432,#433),.UNSPECIFIED.,.F.,.F.,(5,3,5),(0.,0.498963869389,1.),
  .UNSPECIFIED.);
#426 = CARTESIAN_POINT('',(-6.013637988219,-5.331585130147E-15));
#427 = CARTESIAN_POINT('',(-6.021542759673,-0.254392515332));
#428 = CARTESIAN_POINT('',(-6.029662921824,-0.506913070778));
#429 = CARTESIAN_POINT('',(-6.038009507875,-0.757439121758));
#430 = CARTESIAN_POINT('',(-6.055215349747,-1.25524665431));
#431 = CARTESIAN_POINT('',(-6.06407658763,-1.502510205169));
#432 = CARTESIAN_POINT('',(-6.073190557432,-1.747472418451));
#433 = CARTESIAN_POINT('',(-6.082570486571,-1.989962814624));
#434 = ( GEOMETRIC_REPRESENTATION_CONTEXT(2) 
PARAMETRIC_REPRESENTATION_CONTEXT() REPRESENTATION_CONTEXT('2D SPACE',''
  ) );
#435 = ORIENTED_EDGE('',*,*,#114,.F.);
#436 = ADVANCED_FACE('',(#437),#102,.T.);
#437 = FACE_BOUND('',#438,.T.);
#438 = EDGE_LOOP('',(#439,#466,#467,#468,#469,#496));
#439 = ORIENTED_EDGE('',*,*,#440,.F.);
#440 = EDGE_CURVE('',#322,#441,#443,.T.);
#441 = VERTEX_POINT('',#442);
#442 = CARTESIAN_POINT('',(10.,2.5,-23.86943652456));
#443 = SURFACE_CURVE('',#444,(#449,#459),.PCURVE_S1.);
#444 = HYPERBOLA('',#445,2.5,2.5);
#445 = AXIS2_PLACEMENT_3D('',#446,#447,#448);
#446 = CARTESIAN_POINT('',(34.,2.5,0.));
#447 = DIRECTION('',(0.,1.,-0.));
#448 = DIRECTION('',(-1.,0.,0.));
#449 = PCURVE('',#102,#450);
#450 = DEFINITIONAL_REPRESENTATION('',(#451),#458);
#451 = B_SPLINE_CURVE_WITH_KNOTS('',5,(#452,#453,#454,#455,#456,#457),
  .UNSPECIFIED.,.F.,.F.,(6,6),(-3.032633540972,-2.95218650051),
  .PIECEWISE_BEZIER_KNOTS.);
#452 = CARTESIAN_POINT('',(0.,7.106423150925E-15));
#453 = CARTESIAN_POINT('',(-1.547058470426E-03,-0.416386296712));
#454 = CARTESIAN_POINT('',(-3.125086841824E-03,-0.824359349415));
#455 = CARTESIAN_POINT('',(-4.734904033378E-03,-1.224143718262));
#456 = CARTESIAN_POINT('',(-6.377360505889E-03,-1.61595489482));
#457 = CARTESIAN_POINT('',(-8.053340515517E-03,-2.));
#458 = ( GEOMETRIC_REPRESENTATION_CONTEXT(2) 
PARAMETRIC_REPRESENTATION_CONTEXT() REPRESENTATION_CONTEXT('2D SPACE',''
  ) );
#459 = PCURVE('',#172,#460);
#460 = DEFINITIONAL_REPRESENTATION('',(#461),#465);
#461 = HYPERBOLA('',#462,2.5,2.5);
#462 = AXIS2_PLACEMENT_2D('',#463,#464);
#463 = CARTESIAN_POINT('',(25.879528589215,-34.));
#464 = DIRECTION('',(0.,1.));
#465 = ( GEOMETRIC_REPRESENTATION_CONTEXT(2) 
PARAMETRIC_REPRESENTATION_CONTEXT() REPRESENTATION_CONTEXT('2D SPACE',''
  ) );
#466 = ORIENTED_EDGE('',*,*,#321,.F.);
#467 = ORIENTED_EDGE('',*,*,#85,.T.);
#468 = ORIENTED_EDGE('',*,*,#400,.T.);
#469 = ORIENTED_EDGE('',*,*,#470,.T.);
#470 = EDGE_CURVE('',#374,#471,#473,.T.);
#471 = VERTEX_POINT('',#472);
#472 = CARTESIAN_POINT('',(10.,-2.5,-23.86943652456));
#473 = SURFACE_CURVE('',#474,(#479,#489),.PCURVE_S1.);
#474 = HYPERBOLA('',#475,2.5,2.5);
#475 = AXIS2_PLACEMENT_3D('',#476,#477,#478);
#476 = CARTESIAN_POINT('',(34.,-2.5,0.));
#477 = DIRECTION('',(0.,1.,-0.));
#478 = DIRECTION('',(-1.,0.,0.));
#479 = PCURVE('',#102,#480);
#480 = DEFINITIONAL_REPRESENTATION('',(#481),#488);
#481 = B_SPLINE_CURVE_WITH_KNOTS('',5,(#482,#483,#484,#485,#486,#487),
  .UNSPECIFIED.,.F.,.F.,(6,6),(-3.032633540972,-2.95218650051),
  .PIECEWISE_BEZIER_KNOTS.);
#482 = CARTESIAN_POINT('',(-6.090580043034,-1.774838020778E-15));
#483 = CARTESIAN_POINT('',(-6.089032984563,-0.416386296712));
#484 = CARTESIAN_POINT('',(-6.087454956192,-0.824359349415));
#485 = CARTESIAN_POINT('',(-6.085845139,-1.224143718262));
#486 = CARTESIAN_POINT('',(-6.084202682528,-1.61595489482));
#487 = CARTESIAN_POINT('',(-6.082526702518,-2.));
#488 = ( GEOMETRIC_REPRESENTATION_CONTEXT(2) 
PARAMETRIC_REPRESENTATION_CONTEXT() REPRESENTATION_CONTEXT('2D SPACE',''
  ) );
#489 = PCURVE('',#277,#490);
#490 = DEFINITIONAL_REPRESENTATION('',(#491),#495);
#491 = HYPERBOLA('',#492,2.5,2.5);
#492 = AXIS2_PLACEMENT_2D('',#493,#494);
#493 = CARTESIAN_POINT('',(-9.88888264669,-34.));
#494 = DIRECTION('',(0.,1.));
#495 = ( GEOMETRIC_REPRESENTATION_CONTEXT(2) 
PARAMETRIC_REPRESENTATION_CONTEXT() REPRESENTATION_CONTEXT('2D SPACE',''
  ) );
#496 = ORIENTED_EDGE('',*,*,#497,.F.);
#497 = EDGE_CURVE('',#441,#471,#498,.T.);
#498 = SURFACE_CURVE('',#499,(#504,#511),.PCURVE_S1.);
#499 = CIRCLE('',#500,24.);
#500 = AXIS2_PLACEMENT_3D('',#501,#502,#503);
#501 = CARTESIAN_POINT('',(10.,0.,0.));
#502 = DIRECTION('',(1.,-0.,0.));
#503 = DIRECTION('',(0.,9.615384615385E-02,-0.995366484201));
#504 = PCURVE('',#102,#505);
#505 = DEFINITIONAL_REPRESENTATION('',(#506),#510);
#506 = LINE('',#507,#508);
#507 = CARTESIAN_POINT('',(-0.,-2.));
#508 = VECTOR('',#509,1.);
#509 = DIRECTION('',(-1.,-0.));
#510 = ( GEOMETRIC_REPRESENTATION_CONTEXT(2) 
PARAMETRIC_REPRESENTATION_CONTEXT() REPRESENTATION_CONTEXT('2D SPACE',''
  ) );
#511 = PCURVE('',#512,#517);
#512 = PLANE('',#513);
#513 = AXIS2_PLACEMENT_3D('',#514,#515,#516);
#514 = CARTESIAN_POINT('',(10.,1.26E-15,-2.208160871998));
#515 = DIRECTION('',(1.,0.,0.));
#516 = DIRECTION('',(0.,0.,1.));
#517 = DEFINITIONAL_REPRESENTATION('',(#518),#522);
#518 = CIRCLE('',#519,24.);
#519 = AXIS2_PLACEMENT_2D('',#520,#521);
#520 = CARTESIAN_POINT('',(2.208160871998,1.26E-15));
#521 = DIRECTION('',(-0.995366484201,-9.615384615385E-02));
#522 = ( GEOMETRIC_REPRESENTATION_CONTEXT(2) 
PARAMETRIC_REPRESENTATION_CONTEXT() REPRESENTATION_CONTEXT('2D SPACE',''
  ) );
#523 = ADVANCED_FACE('',(#524),#172,.T.);
#524 = FACE_BOUND('',#525,.T.);
#525 = EDGE_LOOP('',(#526,#527,#528,#529,#552,#580));
#526 = ORIENTED_EDGE('',*,*,#150,.F.);
#527 = ORIENTED_EDGE('',*,*,#348,.T.);
#528 = ORIENTED_EDGE('',*,*,#440,.T.);
#529 = ORIENTED_EDGE('',*,*,#530,.T.);
#530 = EDGE_CURVE('',#441,#531,#533,.T.);
#531 = VERTEX_POINT('',#532);
#532 = CARTESIAN_POINT('',(10.,2.5,-9.88888264669));
#533 = SURFACE_CURVE('',#534,(#538,#545),.PCURVE_S1.);
#534 = LINE('',#535,#536);
#535 = CARTESIAN_POINT('',(10.,2.5,-25.87952858921));
#536 = VECTOR('',#537,1.);
#537 = DIRECTION('',(0.,0.,1.));
#538 = PCURVE('',#172,#539);
#539 = DEFINITIONAL_REPRESENTATION('',(#540),#544);
#540 = LINE('',#541,#542);
#541 = CARTESIAN_POINT('',(0.,-10.));
#542 = VECTOR('',#543,1.);
#543 = DIRECTION('',(1.,0.));
#544 = ( GEOMETRIC_REPRESENTATION_CONTEXT(2) 
PARAMETRIC_REPRESENTATION_CONTEXT() REPRESENTATION_CONTEXT('2D SPACE',''
  ) );
#545 = PCURVE('',#512,#546);
#546 = DEFINITIONAL_REPRESENTATION('',(#547),#551);
#547 = LINE('',#548,#549);
#548 = CARTESIAN_POINT('',(-23.67136771721,-2.5));
#549 = VECTOR('',#550,1.);
#550 = DIRECTION('',(1.,0.));
#551 = ( GEOMETRIC_REPRESENTATION_CONTEXT(2) 
PARAMETRIC_REPRESENTATION_CONTEXT() REPRESENTATION_CONTEXT('2D SPACE',''
  ) );
#552 = ORIENTED_EDGE('',*,*,#553,.F.);
#553 = EDGE_CURVE('',#554,#531,#556,.T.);
#554 = VERTEX_POINT('',#555);
#555 = CARTESIAN_POINT('',(0.,2.5,-9.88888264669));
#556 = SURFACE_CURVE('',#557,(#561,#568),.PCURVE_S1.);
#557 = LINE('',#558,#559);
#558 = CARTESIAN_POINT('',(0.,2.5,-9.88888264669));
#559 = VECTOR('',#560,1.);
#560 = DIRECTION('',(1.,0.,0.));
#561 = PCURVE('',#172,#562);
#562 = DEFINITIONAL_REPRESENTATION('',(#563),#567);
#563 = LINE('',#564,#565);
#564 = CARTESIAN_POINT('',(15.990645942525,0.));
#565 = VECTOR('',#566,1.);
#566 = DIRECTION('',(0.,-1.));
#567 = ( GEOMETRIC_REPRESENTATION_CONTEXT(2) 
PARAMETRIC_REPRESENTATION_CONTEXT() REPRESENTATION_CONTEXT('2D SPACE',''
  ) );
#568 = PCURVE('',#569,#574);
#569 = CYLINDRICAL_SURFACE('',#570,10.2);
#570 = AXIS2_PLACEMENT_3D('',#571,#572,#573);
#571 = CARTESIAN_POINT('',(0.,0.,0.));
#572 = DIRECTION('',(-1.,-0.,-0.));
#573 = DIRECTION('',(0.,1.,0.));
#574 = DEFINITIONAL_REPRESENTATION('',(#575),#579);
#575 = LINE('',#576,#577);
#576 = CARTESIAN_POINT('',(-4.960009795285,0.));
#577 = VECTOR('',#578,1.);
#578 = DIRECTION('',(-0.,-1.));
#579 = ( GEOMETRIC_REPRESENTATION_CONTEXT(2) 
PARAMETRIC_REPRESENTATION_CONTEXT() REPRESENTATION_CONTEXT('2D SPACE',''
  ) );
#580 = ORIENTED_EDGE('',*,*,#581,.F.);
#581 = EDGE_CURVE('',#153,#554,#582,.T.);
#582 = SURFACE_CURVE('',#583,(#587,#594),.PCURVE_S1.);
#583 = LINE('',#584,#585);
#584 = CARTESIAN_POINT('',(0.,2.5,-25.87952858921));
#585 = VECTOR('',#586,1.);
#586 = DIRECTION('',(0.,0.,1.));
#587 = PCURVE('',#172,#588);
#588 = DEFINITIONAL_REPRESENTATION('',(#589),#593);
#589 = LINE('',#590,#591);
#590 = CARTESIAN_POINT('',(0.,0.));
#591 = VECTOR('',#592,1.);
#592 = DIRECTION('',(1.,0.));
#593 = ( GEOMETRIC_REPRESENTATION_CONTEXT(2) 
PARAMETRIC_REPRESENTATION_CONTEXT() REPRESENTATION_CONTEXT('2D SPACE',''
  ) );
#594 = PCURVE('',#304,#595);
#595 = DEFINITIONAL_REPRESENTATION('',(#596),#600);
#596 = LINE('',#597,#598);
#597 = CARTESIAN_POINT('',(-23.67136771721,-2.5));
#598 = VECTOR('',#599,1.);
#599 = DIRECTION('',(1.,0.));
#600 = ( GEOMETRIC_REPRESENTATION_CONTEXT(2) 
PARAMETRIC_REPRESENTATION_CONTEXT() REPRESENTATION_CONTEXT('2D SPACE',''
  ) );
#601 = ADVANCED_FACE('',(#602),#304,.F.);
#602 = FACE_BOUND('',#603,.F.);
#603 = EDGE_LOOP('',(#604,#627,#649,#650));
#604 = ORIENTED_EDGE('',*,*,#605,.F.);
#605 = EDGE_CURVE('',#606,#258,#608,.T.);
#606 = VERTEX_POINT('',#607);
#607 = CARTESIAN_POINT('',(0.,-2.5,-9.88888264669));
#608 = SURFACE_CURVE('',#609,(#613,#620),.PCURVE_S1.);
#609 = LINE('',#610,#611);
#610 = CARTESIAN_POINT('',(0.,-2.5,-9.88888264669));
#611 = VECTOR('',#612,1.);
#612 = DIRECTION('',(0.,0.,-1.));
#613 = PCURVE('',#304,#614);
#614 = DEFINITIONAL_REPRESENTATION('',(#615),#619);
#615 = LINE('',#616,#617);
#616 = CARTESIAN_POINT('',(-7.680721774691,2.5));
#617 = VECTOR('',#618,1.);
#618 = DIRECTION('',(-1.,0.));
#619 = ( GEOMETRIC_REPRESENTATION_CONTEXT(2) 
PARAMETRIC_REPRESENTATION_CONTEXT() REPRESENTATION_CONTEXT('2D SPACE',''
  ) );
#620 = PCURVE('',#277,#621);
#621 = DEFINITIONAL_REPRESENTATION('',(#622),#626);
#622 = LINE('',#623,#624);
#623 = CARTESIAN_POINT('',(0.,0.));
#624 = VECTOR('',#625,1.);
#625 = DIRECTION('',(1.,0.));
#626 = ( GEOMETRIC_REPRESENTATION_CONTEXT(2) 
PARAMETRIC_REPRESENTATION_CONTEXT() REPRESENTATION_CONTEXT('2D SPACE',''
  ) );
#627 = ORIENTED_EDGE('',*,*,#628,.F.);
#628 = EDGE_CURVE('',#554,#606,#629,.T.);
#629 = SURFACE_CURVE('',#630,(#635,#642),.PCURVE_S1.);
#630 = CIRCLE('',#631,10.2);
#631 = AXIS2_PLACEMENT_3D('',#632,#633,#634);
#632 = CARTESIAN_POINT('',(0.,0.,0.));
#633 = DIRECTION('',(1.,0.,0.));
#634 = DIRECTION('',(0.,1.,0.));
#635 = PCURVE('',#304,#636);
#636 = DEFINITIONAL_REPRESENTATION('',(#637),#641);
#637 = CIRCLE('',#638,10.2);
#638 = AXIS2_PLACEMENT_2D('',#639,#640);
#639 = CARTESIAN_POINT('',(2.208160871998,1.26E-15));
#640 = DIRECTION('',(0.,-1.));
#641 = ( GEOMETRIC_REPRESENTATION_CONTEXT(2) 
PARAMETRIC_REPRESENTATION_CONTEXT() REPRESENTATION_CONTEXT('2D SPACE',''
  ) );
#642 = PCURVE('',#569,#643);
#643 = DEFINITIONAL_REPRESENTATION('',(#644),#648);
#644 = LINE('',#645,#646);
#645 = CARTESIAN_POINT('',(-0.,0.));
#646 = VECTOR('',#647,1.);
#647 = DIRECTION('',(-1.,0.));
#648 = ( GEOMETRIC_REPRESENTATION_CONTEXT(2) 
PARAMETRIC_REPRESENTATION_CONTEXT() REPRESENTATION_CONTEXT('2D SPACE',''
  ) );
#649 = ORIENTED_EDGE('',*,*,#581,.F.);
#650 = ORIENTED_EDGE('',*,*,#289,.T.);
#651 = ADVANCED_FACE('',(#652),#277,.T.);
#652 = FACE_BOUND('',#653,.T.);
#653 = EDGE_LOOP('',(#654,#655,#656,#679,#700,#701));
#654 = ORIENTED_EDGE('',*,*,#257,.T.);
#655 = ORIENTED_EDGE('',*,*,#605,.F.);
#656 = ORIENTED_EDGE('',*,*,#657,.T.);
#657 = EDGE_CURVE('',#606,#658,#660,.T.);
#658 = VERTEX_POINT('',#659);
#659 = CARTESIAN_POINT('',(10.,-2.5,-9.88888264669));
#660 = SURFACE_CURVE('',#661,(#665,#672),.PCURVE_S1.);
#661 = LINE('',#662,#663);
#662 = CARTESIAN_POINT('',(0.,-2.5,-9.88888264669));
#663 = VECTOR('',#664,1.);
#664 = DIRECTION('',(1.,0.,0.));
#665 = PCURVE('',#277,#666);
#666 = DEFINITIONAL_REPRESENTATION('',(#667),#671);
#667 = LINE('',#668,#669);
#668 = CARTESIAN_POINT('',(0.,0.));
#669 = VECTOR('',#670,1.);
#670 = DIRECTION('',(0.,-1.));
#671 = ( GEOMETRIC_REPRESENTATION_CONTEXT(2) 
PARAMETRIC_REPRESENTATION_CONTEXT() REPRESENTATION_CONTEXT('2D SPACE',''
  ) );
#672 = PCURVE('',#569,#673);
#673 = DEFINITIONAL_REPRESENTATION('',(#674),#678);
#674 = LINE('',#675,#676);
#675 = CARTESIAN_POINT('',(-10.74795347266,0.));
#676 = VECTOR('',#677,1.);
#677 = DIRECTION('',(-0.,-1.));
#678 = ( GEOMETRIC_REPRESENTATION_CONTEXT(2) 
PARAMETRIC_REPRESENTATION_CONTEXT() REPRESENTATION_CONTEXT('2D SPACE',''
  ) );
#679 = ORIENTED_EDGE('',*,*,#680,.T.);
#680 = EDGE_CURVE('',#658,#471,#681,.T.);
#681 = SURFACE_CURVE('',#682,(#686,#693),.PCURVE_S1.);
#682 = LINE('',#683,#684);
#683 = CARTESIAN_POINT('',(10.,-2.5,-9.88888264669));
#684 = VECTOR('',#685,1.);
#685 = DIRECTION('',(0.,0.,-1.));
#686 = PCURVE('',#277,#687);
#687 = DEFINITIONAL_REPRESENTATION('',(#688),#692);
#688 = LINE('',#689,#690);
#689 = CARTESIAN_POINT('',(0.,-10.));
#690 = VECTOR('',#691,1.);
#691 = DIRECTION('',(1.,0.));
#692 = ( GEOMETRIC_REPRESENTATION_CONTEXT(2) 
PARAMETRIC_REPRESENTATION_CONTEXT() REPRESENTATION_CONTEXT('2D SPACE',''
  ) );
#693 = PCURVE('',#512,#694);
#694 = DEFINITIONAL_REPRESENTATION('',(#695),#699);
#695 = LINE('',#696,#697);
#696 = CARTESIAN_POINT('',(-7.680721774691,2.5));
#697 = VECTOR('',#698,1.);
#698 = DIRECTION('',(-1.,0.));
#699 = ( GEOMETRIC_REPRESENTATION_CONTEXT(2) 
PARAMETRIC_REPRESENTATION_CONTEXT() REPRESENTATION_CONTEXT('2D SPACE',''
  ) );
#700 = ORIENTED_EDGE('',*,*,#470,.F.);
#701 = ORIENTED_EDGE('',*,*,#373,.F.);
#702 = ADVANCED_FACE('',(#703),#512,.T.);
#703 = FACE_BOUND('',#704,.T.);
#704 = EDGE_LOOP('',(#705,#706,#728,#729));
#705 = ORIENTED_EDGE('',*,*,#680,.F.);
#706 = ORIENTED_EDGE('',*,*,#707,.F.);
#707 = EDGE_CURVE('',#531,#658,#708,.T.);
#708 = SURFACE_CURVE('',#709,(#714,#721),.PCURVE_S1.);
#709 = CIRCLE('',#710,10.2);
#710 = AXIS2_PLACEMENT_3D('',#711,#712,#713);
#711 = CARTESIAN_POINT('',(10.,0.,0.));
#712 = DIRECTION('',(1.,0.,0.));
#713 = DIRECTION('',(0.,1.,0.));
#714 = PCURVE('',#512,#715);
#715 = DEFINITIONAL_REPRESENTATION('',(#716),#720);
#716 = CIRCLE('',#717,10.2);
#717 = AXIS2_PLACEMENT_2D('',#718,#719);
#718 = CARTESIAN_POINT('',(2.208160871998,1.26E-15));
#719 = DIRECTION('',(0.,-1.));
#720 = ( GEOMETRIC_REPRESENTATION_CONTEXT(2) 
PARAMETRIC_REPRESENTATION_CONTEXT() REPRESENTATION_CONTEXT('2D SPACE',''
  ) );
#721 = PCURVE('',#569,#722);
#722 = DEFINITIONAL_REPRESENTATION('',(#723),#727);
#723 = LINE('',#724,#725);
#724 = CARTESIAN_POINT('',(-0.,-10.));
#725 = VECTOR('',#726,1.);
#726 = DIRECTION('',(-1.,0.));
#727 = ( GEOMETRIC_REPRESENTATION_CONTEXT(2) 
PARAMETRIC_REPRESENTATION_CONTEXT() REPRESENTATION_CONTEXT('2D SPACE',''
  ) );
#728 = ORIENTED_EDGE('',*,*,#530,.F.);
#729 = ORIENTED_EDGE('',*,*,#497,.T.);
#730 = ADVANCED_FACE('',(#731),#569,.F.);
#731 = FACE_BOUND('',#732,.T.);
#732 = EDGE_LOOP('',(#733,#734,#735,#736));
#733 = ORIENTED_EDGE('',*,*,#553,.T.);
#734 = ORIENTED_EDGE('',*,*,#707,.T.);
#735 = ORIENTED_EDGE('',*,*,#657,.F.);
#736 = ORIENTED_EDGE('',*,*,#628,.F.);
#737 = ( GEOMETRIC_REPRESENTATION_CONTEXT(3) 
GLOBAL_UNCERTAINTY_ASSIGNED_CONTEXT((#741)) GLOBAL_UNIT_ASSIGNED_CONTEXT
((#738,#739,#740)) REPRESENTATION_CONTEXT('Context #1',
  '3D Context with UNIT and UNCERTAINTY') );
#738 = ( LENGTH_UNIT() NAMED_UNIT(*) SI_UNIT(.MILLI.,.METRE.) );
#739 = ( NAMED_UNIT(*) PLANE_ANGLE_UNIT() SI_UNIT($,.RADIAN.) );
#740 = ( NAMED_UNIT(*) SI_UNIT($,.STERADIAN.) SOLID_ANGLE_UNIT() );
#741 = UNCERTAINTY_MEASURE_WITH_UNIT(LENGTH_MEASURE(1.E-07),#738,
  'distance_accuracy_value','confusion accuracy');
#742 = PRODUCT_RELATED_PRODUCT_CATEGORY('part',$,(#7));
#743 = MECHANICAL_DESIGN_GEOMETRIC_PRESENTATION_REPRESENTATION('',(#744)
  ,#737);
#744 = STYLED_ITEM('color',(#745),#15);
#745 = PRESENTATION_STYLE_ASSIGNMENT((#746,#752));
#746 = SURFACE_STYLE_USAGE(.BOTH.,#747);
#747 = SURFACE_SIDE_STYLE('',(#748));
#748 = SURFACE_STYLE_FILL_AREA(#749);
#749 = FILL_AREA_STYLE('',(#750));
#750 = FILL_AREA_STYLE_COLOUR('',#751);
#751 = COLOUR_RGB('',0.447058818107,0.474509808674,0.501960817233);
#752 = CURVE_STYLE('',#753,POSITIVE_LENGTH_MEASURE(0.1),#754);
#753 = DRAUGHTING_PRE_DEFINED_CURVE_FONT('continuous');
#754 = COLOUR_RGB('',9.803921802644E-02,9.803921802644E-02,
  9.803921802644E-02);
ENDSEC;
END-ISO-10303-21;
